<?xml version="1.0" encoding="utf-8"?>
<!-- Generator: Adobe Illustrator 16.0.0, SVG Export Plug-In . SVG Version: 6.00 Build 0)  -->
<!DOCTYPE svg PUBLIC "-//W3C//DTD SVG 1.1//EN" "http://www.w3.org/Graphics/SVG/1.1/DTD/svg11.dtd">
<svg version="1.1" id="Capa_1" xmlns="http://www.w3.org/2000/svg" xmlns:xlink="http://www.w3.org/1999/xlink" x="0px" y="0px"
	 width="500px" height="500px" viewBox="0 0 500 500" enable-background="new 0 0 500 500" xml:space="preserve">
<g id="XMLID_1218_">
	<path id="XMLID_98_" fill="#FFFFFF" d="M450,500H50c-27.5,0-50-22.5-50-50V50C0,22.5,22.5,0,50,0h400c27.5,0,50,22.5,50,50v400
		C500,477.5,477.5,500,450,500z"/>
	<path id="XMLID_1219_" fill="#CCCCCC" d="M449.999,5c25.001,0,45,19.999,45,45v400c0,25-20,45.002-45,45.002h-400
		c-25,0-45-20.002-45-45.002V50c0-25,20-45,45-45H449.999 M449.999,0h-400C22.499,0,0,22.5,0,50v400c0,27.5,22.499,50,49.999,50h400
		c27.5,0,50.001-22.5,50.001-50V50C500,22.5,477.499,0,449.999,0L449.999,0z"/>
</g>
<g>
	<g id="XMLID_92_">
		<path id="XMLID_95_" fill="#9CCD3A" d="M410.994,303.615c-43.409,32.436-106.776,49.396-161.664,49.396
			c-76.345,0-145.206-28.435-197.598-75.337c-3.991-3.492-0.499-8.984,4.491-5.996c56.386,32.938,125.743,52.395,197.597,52.395
			c48.402,0,101.785-9.975,150.686-30.936C411.997,290.138,418.477,298.127,410.994,303.615z"/>
		<path id="XMLID_94_" fill="#9CCD3A" d="M429.454,283.162c-5.489-6.984-36.919-3.492-50.896-1.498c-4.48,0.494-4.99-3-0.991-5.996
			c24.938-17.463,65.857-12.473,70.853-6.479c4.993,5.983-1.499,46.903-24.456,66.861c-3.493,2.997-6.986,1.499-5.488-2.491
			C422.975,319.584,434.941,290.138,429.454,283.162z"/>
	</g>
	<g>
		<path fill="#070707" d="M100.159,399.943c6.471-7.6,13.557-7.166,18.795,0.751c2.836-4.447,6.672-6.81,12.061-5.901
			c4.695,0.798,7.998,3.647,8.174,8.392c0.375,10.022,0.238,20.071,0.314,30.11c0.012,1.479-0.615,2.335-2.212,2.266
			c-0.547-0.025-1.1,0.007-1.647,0c-7.461-0.051-6.295,0.612-6.353-6.381c-0.052-6.339-0.015-12.664-0.012-18.99
			c0-2.915-0.29-5.69-4.037-6.004c-2.893-0.234-5.069,2.308-5.13,6.211c-0.113,7.155-0.162,14.307,0.021,21.461
			c0.076,2.91-0.869,4.058-3.752,3.733c-1.222-0.146-2.484-0.128-3.707-0.003c-2.491,0.24-3.018-1.063-2.993-3.22
			c0.069-6.747,0.04-13.483,0.012-20.222c-0.006-1.369-0.117-2.742-0.253-4.109c-0.229-2.368-1.535-3.889-3.935-3.955
			c-2.335-0.067-3.816,1.322-4.443,3.563c-0.824,2.957-0.699,5.988-0.69,9.012c0.013,5.228-0.119,10.454,0.055,15.676
			c0.079,2.565-0.812,3.341-3.314,3.276c-8.481-0.194-6.711,0.661-6.79-6.725c-0.11-9.631-0.046-19.26-0.009-28.891
			c0.006-2.166-0.888-5.148,3.056-4.662C96.187,395.685,100.685,393.359,100.159,399.943z M82.052,414.172
			c0.191,4.998-1.068,10.255,2.782,14.586c0.873,0.979-0.003,1.781-0.72,2.435c-1.016,0.933-2.182,1.714-3.103,2.727
			c-2.217,2.421-4.26,2.305-5.963-0.41c-1.305-2.101-2.367-2.608-4.273-0.573c-1.617,1.737-3.886,2.483-6.256,2.913
			c-6.513,1.177-11.82-1.262-13.666-6.379c-2.306-6.406,0.192-13.316,5.973-16.364c3.352-1.761,7.034-2.269,10.751-2.59
			c2.012-0.175,4.185,0.137,3.91-3.192c-0.239-2.882-1.167-4.794-4.232-5.055c-2.735-0.228-4.772,0.792-6.004,3.383
			c-0.888,1.86-7.02,2.827-8.946,1.265c-2.287-1.859-0.342-3.841,0.499-5.48c3.114-6.057,11.89-8.762,20.47-6.515
			c6.312,1.654,8.758,5.408,8.773,13.455C82.054,410.313,82.052,412.244,82.052,414.172z M71.413,419.532
			c-0.851-0.683,1.366-3.028-1.312-3.195c-2.93-0.184-5.783,0.415-7.738,2.868c-1.666,2.086-1.785,4.515-0.729,6.944
			c0.656,1.509,2.031,2.45,3.534,2.388c2.49-0.113,4.208-1.621,5.325-3.896C71.25,423.114,71.438,421.537,71.413,419.532z
			 M177.526,414.282c0.397,4.371-1.231,9.667,2.612,14.044c0.84,0.953,0.447,2.055-0.532,2.89c-1.25,1.069-2.533,2.112-3.695,3.278
			c-2.628,2.632-4.251,0.518-5.596-1.333c-1.252-1.739-2.123-1.996-3.707-0.442c-1.686,1.664-3.848,2.56-6.193,3.06
			c-6.547,1.422-12.055-1.034-13.98-6.309c-2.403-6.563,0.208-13.548,6.218-16.495c3.381-1.657,7.061-2.103,10.755-2.529
			c1.485-0.174,3.885,0.688,3.763-2.371c-0.113-2.67-0.691-5.039-3.676-5.666c-3.006-0.633-5.363,0.38-6.798,3.291
			c-0.949,1.938-5.909,2.871-8.542,1.39c-2.725-1.532-0.818-3.692-0.043-5.306c4.156-8.656,21.428-10.438,27.202-2.859
			c2.826,3.701,2.102,8.092,2.197,12.314C177.544,412.048,177.526,412.875,177.526,414.282z M167.171,419.775
			c-0.447-1.053,0.943-2.727-0.955-3.447c-3.838-1.471-9.482,2.32-9.72,6.557c-0.131,2.35,0.499,4.387,2.96,5.331
			c2.305,0.883,4.008-0.258,5.435-1.853C166.511,424.54,166.971,422.238,167.171,419.775z M265.841,400.095
			c4.081-5.599,7.476-6.457,13.054-4.896c4.902,1.367,6.543,5.508,6.61,10.299c0.116,9.072,0.17,18.147,0.312,27.221
			c0.038,2.103-0.79,2.81-2.916,2.904c-7.343,0.324-7.318,0.41-7.343-7.067c-0.012-6.051-0.047-12.105-0.106-18.164
			c-0.035-2.858-0.335-5.997-3.885-6.258c-3.846-0.284-4.98,2.824-5.404,6.005c-0.957,7.119-0.512,14.288-0.387,21.428
			c0.062,3.389-1.078,4.666-4.193,3.938c-2.049-0.481-5.777,1.938-5.877-2.18c-0.285-11.964-0.102-23.938-0.104-35.913
			c0-0.873,0.148-1.709,1.176-1.879c2.456-0.404,4.983-0.569,7.371,0.029C266.344,396.116,264.862,398.477,265.841,400.095z
			 M217.128,416.316c0.006-4.327,0.405-7.457,1.434-10.462c2.432-7.112,8.038-11.316,15.005-11.337
			c6.979-0.021,12.772,4.103,15.187,11.111c1.962,5.688,2.317,11.533,0.733,17.402c-2.391,8.889-8.589,13.602-17.304,13.216
			c-7.123-0.309-12.937-6.098-14.489-14.54C217.299,419.568,217.232,417.355,217.128,416.316z M228.198,415.345
			c0.091,2.597-0.146,5.483,0.754,8.308c0.751,2.349,1.669,4.51,4.516,4.642c3.018,0.118,4.486-1.931,5.073-4.505
			c1.335-5.839,1.213-11.705-0.215-17.539c-0.557-2.275-1.999-3.64-4.292-3.802c-2.56-0.177-4.008,1.421-4.887,3.653
			C228.001,408.998,228.244,412.043,228.198,415.345z M199.203,422.087c4.562,0.288,8.349,0.766,11.921,2.388
			c1.479,0.674,2.469,1.491,2.753,3.23c0.969,6.023-0.171,7.078-5.9,5.145c-6.521-2.204-13.017-2.118-19.221,0.816
			c-3.477,1.643-3.798,0.386-3.923-2.717c-0.167-4.051,0.852-7.404,3.333-10.65c3.956-5.186,7.512-10.684,11.669-16.676
			c-4.118,0-7.502-0.061-10.891,0.015c-3.747,0.079-2.604-2.661-2.767-4.646c-0.171-2.045-0.186-3.786,2.807-3.726
			c7.141,0.143,14.294,0.088,21.437,0.015c1.947-0.018,2.661,0.693,2.689,2.644c0.039,2.679-0.336,5.032-2.038,7.316
			C207.074,410.591,203.353,416.156,199.203,422.087z"/>
		<path fill="#9CCD3A" d="M361.106,417.768c-3.988,0-7.992,0.093-11.978-0.032c-2.337-0.067-2.829,0.925-2.47,3.007
			c0.849,4.941,4.419,8.486,9.66,9.416c5.17,0.928,9.228-0.818,11.598-5.637c1.615-3.293,4.235-2.043,6.399-1.781
			c1.521,0.182,0.431,1.889,0.169,2.78c-2.349,7.896-11.113,12.336-20.42,10.441c-11.779-2.405-18.093-16.456-13.089-29.109
			c3.121-7.91,9.958-12.292,18.435-11.81c9.565,0.545,18.609,12.146,16.533,21.134c-0.401,1.755-1.633,1.591-2.848,1.591
			C369.097,417.774,365.106,417.763,361.106,417.768z M357.712,411.941c2.885,0,5.768-0.068,8.648,0.024
			c2.203,0.067,2.486-0.773,1.925-2.751c-1.391-4.872-6.038-8.527-10.965-8.363c-4.871,0.16-9.138,3.799-10.437,8.518
			c-0.605,2.264,0.297,2.632,2.191,2.59C351.95,411.896,354.832,411.947,357.712,411.941z M424.093,400.367
			c4.837-4.782,10.025-6.029,15.699-5.154c6.049,0.94,9.743,4.948,9.957,11.348c0.306,8.803,0.071,17.613,0.25,26.42
			c0.056,2.996-1.877,2.346-3.58,2.465c-2.006,0.13-3.353-0.042-3.286-2.732c0.184-7.16,0.065-14.321,0.065-21.479
			c0-7.098-2.293-10.182-7.698-10.361c-6.044-0.201-11.03,4.078-11.286,10.222c-0.285,6.733-0.33,13.499-0.029,20.228
			c0.172,3.659-1.203,4.456-4.473,4.176c-1.854-0.174-2.281-0.879-2.275-2.541c0.036-16.519,0.062-33.039-0.012-49.557
			c-0.015-2.973,1.949-2.313,3.635-2.432c1.922-0.134,3.125,0.226,3.072,2.622C424.003,388.879,424.093,394.184,424.093,400.367z
			 M395.854,436.289c-6.602-0.209-12.709-1.432-15.631-8.398c-0.642-1.554-2.072-4.022,0.469-4.768
			c1.871-0.549,4.557-1.477,5.885,2.248c2.004,5.631,14.231,6.904,17.923,2.225c1.992-2.539,1.081-5.817-2.207-7.493
			c-3.234-1.651-6.863-1.942-10.313-2.833c-2.674-0.689-5.323-1.385-7.66-2.94c-5.283-3.54-5.89-10.95-1.25-15.343
			c5.529-5.227,18.586-5.43,24.246-0.369c1.254,1.124,2.349,2.461,2.68,4.084c0.302,1.499,2.298,3.752-0.162,4.482
			c-1.93,0.566-4.668,1.518-6.271-1.871c-2.245-4.729-10.799-6.011-14.828-2.627c-2.439,2.037-2.105,4.928,0.881,6.785
			c2.377,1.484,5.15,1.842,7.823,2.482c2.94,0.697,5.917,1.23,8.702,2.469c3.626,1.618,6.204,3.977,6.504,8.252
			c0.317,4.67-1.215,8.405-5.284,10.858C403.847,435.684,399.935,436.352,395.854,436.289z M298.042,418.475
			c0-4.4-0.072-8.809,0.035-13.209c0.053-2.156-0.443-3.496-2.94-3.201c-2.427,0.284-3.808-0.281-3.798-3.265
			c0.008-2.884,1.428-3.2,3.602-2.942c4.063,0.484,3.047-2.484,3.088-4.604c0.141-7.964,5.4-12.249,12.938-10.761
			c2.596,0.51,2.323,2.061,2.421,3.871c0.125,2.365-1.238,2.177-2.896,2.156c-4.805-0.064-7.41,3.961-5.453,8.253
			c0.809,1.771,2.371,0.979,3.611,1.03c1.967,0.086,3.799-0.285,3.772,2.809c-0.019,2.752-0.96,3.868-3.605,3.433
			c-3.563-0.583-4.022,1.314-3.974,4.278c0.15,8.535-0.023,17.065,0.1,25.601c0.03,2.546-0.492,3.694-3.391,3.594
			c-2.572-0.081-3.713-0.573-3.57-3.427C298.207,427.566,298.042,423.021,298.042,418.475z M324.206,403.756
			c3.005-4.871,6.148-7.84,10.763-8.524c1.509-0.228,4.032-1.301,3.909,1.796c-0.084,2.012,1.704,4.994-2.769,5.363
			c-6.849,0.562-10.668,4.631-11.108,11.582c-0.383,6.032-0.359,12.103-0.201,18.149c0.078,2.884-1.061,3.395-3.6,3.383
			c-2.414-0.007-3.412-0.511-3.38-3.184c0.144-11.155,0.144-22.305,0-33.448c-0.038-2.812,1.238-3.029,3.499-3.094
			c2.494-0.07,3.137,0.955,2.914,3.169C324.11,400.115,324.206,401.302,324.206,403.756z"/>
	</g>
	<path id="XMLID_88_" d="M331.658,227.771c-6.491-8.981-12.972-15.969-12.972-32.432v-54.393c0-22.951,1.497-44.406-15.474-59.874
		c-13.467-12.977-35.927-17.469-52.888-17.469c-33.433,0-70.358,12.477-78.339,53.395c-1,4.489,2.491,6.487,4.986,7.484
		l33.931,3.494c2.993,0,5.488-3.494,5.988-6.488c2.994-13.971,14.968-20.96,27.944-20.96c6.988,0,15.461,2.497,19.464,8.982
		c4.979,6.987,4.483,16.966,4.483,25.45v4.491c-20.46,2.493-46.905,3.993-65.863,11.976c-21.954,9.478-37.424,28.94-37.424,56.881
		c0,36.422,22.955,54.385,52.396,54.385c24.944,0,38.417-5.982,57.382-25.444c6.479,8.983,8.476,13.474,19.957,23.45
		c2.492,1.502,5.984,1.502,8.484-0.994l0,0c6.979-5.988,19.452-17.461,26.938-22.95
		C334.149,234.753,333.654,231.265,331.658,227.771z M262.803,212.3c-5.488,9.985-14.477,15.968-23.956,15.968
		c-13.472,0-21.458-9.979-21.458-25.445c0-29.938,26.444-34.929,51.89-34.929v7.483C269.282,188.848,269.791,200.328,262.803,212.3z
		"/>
</g>
</svg>
