<?xml version="1.0" encoding="utf-8"?>
<!-- Generator: Adobe Illustrator 16.0.0, SVG Export Plug-In . SVG Version: 6.00 Build 0)  -->
<!DOCTYPE svg PUBLIC "-//W3C//DTD SVG 1.1//EN" "http://www.w3.org/Graphics/SVG/1.1/DTD/svg11.dtd">
<svg version="1.1" id="Capa_1" xmlns="http://www.w3.org/2000/svg" xmlns:xlink="http://www.w3.org/1999/xlink" x="0px" y="0px"
	 width="500px" height="500px" viewBox="0 0 500 500" enable-background="new 0 0 500 500" xml:space="preserve">
<g id="XMLID_1368_">
	<path id="XMLID_988_" fill="#FFFFFF" d="M450,500H50c-27.5,0-50-22.5-50-50V50C0,22.5,22.5,0,50,0h400c27.5,0,50,22.5,50,50v400
		C500,477.5,477.5,500,450,500z"/>
	<path id="XMLID_1219_" fill="#CCCCCC" d="M450.001,5.001c25,0,44.999,20,44.999,44.999v400.001c0,25-20.001,45.001-44.999,45.001
		H50c-25,0-44.999-20.001-44.999-45.001V50.002c0-25,20-45,44.999-45L450.001,5.001 M450.001,0H50C22.5,0,0,22.501,0,50.002v400.001
		C0,477.501,22.5,500,49.999,500h400.002C477.5,500,500,477.501,500,450.003V50.002C500.001,22.501,477.5,0,450.001,0L450.001,0z"/>
</g>
<path fill="#1A75CF" d="M72.415,351.18c-3.487-1.494-6.475-6.975-6.475-6.975L50,276.459h18.928l5.978,31.883
	c1.494,9.463,3.487,19.426,4.482,26.898l0,0c1.495-8.469,2.989-17.932,4.982-27.396l6.475-31.881h18.431l5.978,32.877
	c1.494,8.965,2.988,17.434,3.986,25.902l0,0c0.996-8.469,2.988-17.934,4.482-26.898l6.475-31.883h17.933l-19.925,77.213
	c0,0-15.442-0.996-15.94-2.492c0,0-3.985-2.988-4.981-7.473c-1.495-5.48-4.483-22.914-4.483-22.914
	c-1.494-7.969-2.989-14.943-3.487-23.91l0,0c-1.494,8.967-2.491,15.941-4.482,23.91l-7.473,33.375
	C87.857,353.67,76.898,353.174,72.415,351.18z M195.952,340.221c0,5.479,0,10.461,0.996,13.449h-15.94l-0.996-5.479h-0.499
	c-3.487,4.482-9.465,6.973-15.94,6.973c-11.457,0-17.933-8.469-17.933-17.436c0-14.445,12.951-21.42,32.876-21.42v-0.994
	c0-2.988-1.495-7.473-10.461-7.473c-5.978,0-11.954,1.992-15.441,4.482l-2.989-11.457c3.985-1.992,11.457-4.98,21.917-4.98
	c18.929,0,24.907,10.959,24.907,24.408L195.952,340.221L195.952,340.221z M178.517,327.27c-8.967,0-16.439,1.992-16.439,8.967
	c0,4.482,2.989,6.475,6.974,6.475c4.482,0,7.97-2.988,8.966-6.475c0-0.996,0.499-1.992,0.499-2.988V327.27L178.517,327.27z
	 M203.922,272.475h17.436v81.693h-17.436V272.475L203.922,272.475z M229.825,315.812c0-6.975,0-12.953-0.498-17.934h14.943
	l0.996,7.473h0.499c2.49-3.486,7.472-8.967,16.936-8.967c7.472,0,12.952,3.486,15.441,9.467l0,0c1.993-2.99,4.483-4.982,7.473-6.975
	c2.988-1.994,6.475-2.99,10.46-2.99c10.96,0,18.929,7.473,18.929,24.408v32.879h-16.936v-30.389c0-7.969-2.491-12.951-8.468-12.951
	c-3.985,0-6.974,2.988-7.97,5.979c-0.996,1.992-0.996,3.984-0.996,4.98v32.877h-16.937v-31.383c0-6.973-2.491-11.953-7.969-11.953
	c-4.483,0-6.975,3.486-7.971,6.473c-0.499,1.496-0.499,2.99-0.499,4.484v32.877h-16.936L229.825,315.812L229.825,315.812z
	 M371.295,340.221c0,5.479,0,10.461,0.996,13.449h-15.94l-0.996-5.479l0,0c-3.487,4.482-9.465,6.973-15.94,6.973
	c-11.456,0-17.934-8.469-17.934-17.436c0-14.445,12.953-21.42,32.877-21.42v-0.994c0-2.988-1.493-7.473-10.461-7.473
	c-5.979,0-11.954,1.992-15.441,4.482l-2.989-11.457c3.986-1.992,11.457-4.98,21.918-4.98c18.929,0,24.906,10.959,24.906,24.408
	v19.926H371.295z M354.357,327.27c-8.966,0-16.438,1.992-16.438,8.967c0,4.482,2.988,6.475,6.974,6.475
	c4.483,0,7.971-2.988,8.968-6.475c0-0.996,0.497-1.992,0.497-2.988V327.27L354.357,327.27z M379.764,316.311
	c0-8.467,0-13.449-0.498-18.432h14.943l0.497,10.463h0.5c2.987-7.971,9.962-11.459,14.943-11.459c1.493,0,2.491,0,3.486,0v16.439
	c-1.494-0.498-2.989-0.498-4.482-0.498c-6.476,0-10.96,3.486-11.955,8.967c0,0.996-0.5,2.49-0.5,3.984v28.395h-17.433
	L379.764,316.311L379.764,316.311z M420.111,297.879v-10.461l16.937-4.482v15.443H450v11.955h-12.454v20.424
	c0,6.973,1.494,9.961,6.975,9.961c2.489,0,3.486,0,4.98-0.498v13.449c-2.491,0.996-6.476,1.494-11.457,1.494
	c-5.479,0-10.461-1.992-12.951-4.982c-2.989-3.486-4.981-8.965-4.981-16.438v-23.412 M104.091,373.074
	c8.996,0,17.921,2.004,26.778,6.016v12.918c-8.857-4.498-17.573-6.748-26.15-6.748c-5.334,0-10.077,1.064-14.226,3.191
	c-4.149,2.127-7.366,5.188-9.649,9.178c-2.284,3.994-3.426,8.447-3.426,13.363c0,7.463,2.484,13.469,7.453,18.018
	c4.968,4.551,11.514,6.824,19.639,6.824c2.23,0,4.368-0.189,6.407-0.574c2.04-0.385,4.472-1.115,7.296-2.197V420.93H106.13v-11.035
	h26.202v30.125c-3.592,2.51-7.906,4.471-12.944,5.883s-10.277,2.117-15.716,2.117c-7.706,0-14.688-1.586-20.946-4.76
	c-6.258-3.172-11.139-7.617-14.644-13.336c-3.505-5.719-5.256-12.1-5.256-19.143c0-7.146,1.769-13.615,5.309-19.402
	c3.539-5.789,8.473-10.285,14.801-13.494C89.264,374.678,96.316,373.074,104.091,373.074z M173.703,397.289
	c1.708,0,3.391,0.385,5.047,1.152c1.656,0.766,3.582,2.057,5.779,3.869l-4.603,11.244c-3.731-2.787-6.729-4.184-8.996-4.184
	c-1.987,0-3.949,0.742-5.884,2.223c-1.934,1.482-3.486,3.443-4.654,5.885c-1.168,2.439-1.752,4.881-1.752,7.32v22.281h-12.866
	v-48.85h12.866v12.449h0.209c2.335-4.709,4.689-8.115,7.061-10.225C168.281,398.344,170.878,397.289,173.703,397.289z
	 M212.614,397.289c5.09,0,9.71,1.064,13.859,3.191c4.149,2.125,7.356,5.107,9.623,8.943c2.266,3.836,3.399,8.176,3.399,13.023
	c0,5.055-1.09,9.482-3.269,13.283c-2.179,3.799-5.387,6.799-9.624,8.996c-4.236,2.197-8.9,3.295-13.99,3.295
	c-5.126,0-9.781-1.098-13.965-3.295c-4.184-2.199-7.366-5.197-9.544-8.996c-2.179-3.801-3.269-8.229-3.269-13.283
	c0-4.918,1.15-9.285,3.452-13.102c2.301-3.818,5.509-6.781,9.624-8.891C203.025,398.344,207.593,397.289,212.614,397.289z
	 M199.33,422.447c0,4.881,1.194,8.777,3.583,11.688s5.587,4.367,9.597,4.367c4.184,0,7.479-1.395,9.884-4.184
	c2.406-2.791,3.608-6.781,3.608-11.977c0-4.951-1.211-8.777-3.635-11.48c-2.424-2.701-5.71-4.053-9.859-4.053
	c-3.905,0-7.078,1.43-9.519,4.289C200.55,413.955,199.33,417.738,199.33,422.447z M273.23,397.289c5.683,0,10.827,1.1,15.429,3.295
	v10.932c-4.567-2.65-8.891-3.975-12.971-3.975c-4.393,0-7.985,1.369-10.773,4.105c-2.79,2.738-4.184,6.441-4.184,11.113
	c0,4.568,1.402,8.246,4.21,11.035c2.807,2.791,6.545,4.184,11.218,4.184c3.486,0,7.95-1.15,13.389-3.451v10.408
	c-5.057,2.057-10.268,3.086-15.638,3.086c-7.915,0-14.341-2.266-19.272-6.799c-4.935-4.533-7.401-10.547-7.401-18.043
	c0-7.773,2.415-14.035,7.244-18.777C259.309,399.662,265.559,397.289,273.23,397.289z M321.033,397.289
	c7.181,0,12.865,2.301,17.049,6.904c4.185,4.604,6.276,10.965,6.276,19.09v1.934h-34.569c0.522,4.359,2.151,7.717,4.89,10.066
	c2.736,2.354,6.494,3.531,11.271,3.531c3.067,0,6.021-0.531,8.864-1.594c2.842-1.064,5.779-2.676,8.812-4.838v9.572
	c-5.718,4.045-12.656,6.066-20.815,6.066c-7.706,0-13.999-2.32-18.88-6.957c-4.882-4.637-7.322-10.807-7.322-18.514
	c0-7.426,2.257-13.494,6.773-18.199C307.896,399.643,313.779,397.289,321.033,397.289z M332.278,417.426
	c-0.351-3.557-1.431-6.338-3.242-8.342c-1.814-2.006-4.308-3.01-7.48-3.01c-3.243,0-5.85,0.961-7.819,2.879
	c-1.971,1.916-3.216,4.74-3.739,8.473H332.278z M382.382,397.289c1.708,0,3.39,0.385,5.046,1.152
	c1.656,0.766,3.583,2.057,5.779,3.869l-4.603,11.244c-3.731-2.787-6.73-4.184-8.995-4.184c-1.988,0-3.949,0.742-5.885,2.223
	c-1.934,1.482-3.487,3.443-4.653,5.885c-1.168,2.439-1.752,4.881-1.752,7.32v22.281h-12.866v-48.85h12.866v12.449h0.209
	c2.335-4.709,4.688-8.115,7.061-10.225C376.958,398.344,379.558,397.289,382.382,397.289z M406.805,398.23l11.559,26.256
	l11.716-26.256h13.807l-33.733,73.482h-13.807l15.532-33.631l-18.985-39.854h13.912V398.23z"/>
<path id="XMLID_323_" fill="#FDBB30" d="M260.82,95.245c-0.408,3.674-2.857,6.941-5.716,6.941c0,0-2.451,0.408-4.491,0.408
	c-2.451,0-5.309-0.408-5.309-0.408c-2.858,0-5.308-2.858-5.716-6.941l-4.899-60.017c-0.408-4.083,3.267-6.94,7.757-6.94h15.923
	c4.49,0,7.757,2.858,7.757,6.94L260.82,95.245z M292.666,126.682c-3.266,1.634-7.35,1.226-8.574-1.225c0,0-1.633-1.633-2.857-3.674
	c-1.225-2.042-2.449-4.9-2.449-4.9c-1.633-2.45,0-6.124,2.857-8.165l48.993-35.111c2.858-2.042,7.35-0.817,9.799,2.858l8.165,13.473
	c2.45,3.675,1.634,8.165-2.041,9.799L292.666,126.682z M280.824,166.286c-2.856-2.042-4.49-5.716-2.856-8.165
	c0,0,0.816-2.042,2.04-4.083c1.227-2.042,3.267-4.491,3.267-4.491c1.634-2.45,5.308-2.858,8.575-1.225l53.892,26.946
	c3.266,1.633,4.082,6.124,2.041,9.799l-8.165,13.472c-2.45,3.675-6.532,5.309-9.799,2.858L280.824,166.286z M239.589,178.942
	c0.409-3.674,2.858-6.942,5.716-6.942c0,0,2.45-0.408,4.491-0.408c2.449,0,5.309,0.408,5.309,0.408c2.857,0,5.308,2.858,5.716,6.942
	l4.899,60.016c0.408,3.674-3.266,6.94-7.757,6.94H242.04c-4.491,0-7.757-2.856-7.757-6.94L239.589,178.942z M207.335,126.682
	c3.267,1.634,7.349,1.226,8.573-1.225c0,0,1.634-1.633,2.858-3.674c1.224-2.042,2.45-4.9,2.45-4.9c1.633-2.45,0-6.124-2.858-8.165
	l-48.994-35.111c-2.858-2.042-7.349-0.817-9.799,2.858l-8.165,13.473c-2.45,3.675-1.633,8.165,2.041,9.799L207.335,126.682z
	 M219.175,166.286c2.858-2.042,4.491-5.716,2.858-8.165c0,0-0.816-2.042-2.042-4.083c-1.225-2.042-3.266-4.491-3.266-4.491
	c-1.632-2.45-5.308-2.858-8.574-1.225l-53.892,26.946c-3.266,1.633-4.083,6.124-2.042,9.799l8.167,13.472
	c2.45,3.675,6.532,5.309,9.798,2.858L219.175,166.286z"/>
</svg>
